<svg viewBox="0 0 200 230" xmlns="http://www.w3.org/2000/svg" role="img" aria-labelledby="nwl-logo-title">
  <title id="nwl-logo-title">National Wayzata League shield logo</title>
  <defs>
    <clipPath id="shieldClip">
      <path d="M20 18 L180 18 L180 165 C180 195 150 212 100 215 C50 212 20 195 20 165 Z"/>
    </clipPath>
  </defs>

  <path d="M20 18 L180 18 L180 165 C180 195 150 212 100 215 C50 212 20 195 20 165 Z"
        fill="#121826" stroke="#F4F6F9" stroke-width="3"/>

  <g clip-path="url(#shieldClip)">
    <rect x="20" y="18" width="160" height="40" fill="#1E3FCB"/>
    <rect x="20" y="163" width="160" height="55" fill="#C8102E"/>
  </g>

  <path d="M20 18 L180 18 L180 165 C180 195 150 212 100 215 C50 212 20 195 20 165 Z"
        fill="none" stroke="#F4F6F9" stroke-width="3"/>

  <text x="100" y="46" text-anchor="middle"
        font-family="Oswald, Arial Narrow, sans-serif" font-weight="600"
        font-size="15" letter-spacing="2.5" fill="#F4F6F9">NATIONAL</text>

  <line x1="32" y1="60" x2="168" y2="60" stroke="#F4F6F9" stroke-width="1.5" opacity="0.5"/>

  <text x="100" y="120" text-anchor="middle"
        font-family="Oswald, Arial Narrow, sans-serif" font-weight="700"
        font-size="56" letter-spacing="2" fill="#F4F6F9">NWL</text>

  <line x1="32" y1="134" x2="168" y2="134" stroke="#F4F6F9" stroke-width="1.5" opacity="0.5"/>

  <text x="100" y="153" text-anchor="middle"
        font-family="Oswald, Arial Narrow, sans-serif" font-weight="600"
        font-size="14" letter-spacing="1" fill="#F4F6F9">WAYZATA LEAGUE</text>

  <text x="100" y="186" text-anchor="middle"
        font-family="IBM Plex Mono, monospace" font-weight="500"
        font-size="10" letter-spacing="1" fill="#F4F6F9" opacity="0.9">EST. 2013</text>
</svg>
